# This file uses centimeters as units for non-parametric coordinates.

mtllib puertaFachadaPicapiedras.mtl
g default
v 7.928663 -24.801492 -83.834791
v 7.928663 -38.968731 -82.901331
v 7.928663 -50.135453 -77.645504
v 7.928663 -57.106682 -64.570388
v 7.928663 -59.848737 -46.770040
v 7.928663 -60.446512 -29.610516
v 7.928663 -55.389177 -16.089554
v 7.928663 -42.612975 -4.825262
v 7.928663 -25.947942 1.218321
v 7.928663 -8.284246 1.860541
v 7.928663 10.937689 0.783501
v 7.928663 32.595344 -6.537262
v 7.928663 51.515046 -13.654744
v 7.928663 63.197454 -28.049304
v 7.928663 66.062579 -44.315875
v 7.928663 59.670026 -58.383155
v 7.928663 46.001284 -71.990277
v 7.928663 29.508371 -83.096722
v 7.928663 8.969966 -88.203010
v 7.928663 -9.239711 -87.356234
v -6.814581 -24.231105 -84.287960
v -6.814581 -39.065643 -82.258096
v -6.814581 -50.135453 -76.076303
v -6.814581 -57.106682 -63.104313
v -6.814581 -59.621079 -46.335541
v -6.814581 -59.214173 -29.989122
v -6.814581 -53.712124 -16.096013
v -6.814581 -41.431151 -6.415570
v -6.814581 -25.809450 -3.133112
v -6.814581 -8.824511 -3.797673
v -6.814581 9.881773 -2.897380
v -6.814581 29.998820 -6.827522
v -6.814581 48.292020 -14.484740
v -6.814581 59.549279 -28.927396
v -6.814581 62.613516 -44.829473
v -6.814581 56.999531 -58.902700
v -6.814581 45.755284 -71.668698
v -6.814581 30.369540 -81.962301
v -6.814581 11.191734 -87.125095
v -6.814581 -7.258277 -87.224581
v 7.928663 -0.062834 -41.544362
v -6.814581 -1.070897 -43.332309
vt 0.814719 0.280418
vt 0.812610 0.175229
vt 0.815978 0.214274
vt 0.826238 0.321014
vt 0.775360 0.092081
vt 0.772999 0.134338
vt 0.675031 0.037097
vt 0.677102 0.081359
vt 0.534918 0.010775
vt 0.549919 0.058093
vt 0.397577 0.000000
vt 0.423398 0.055252
vt 0.284406 0.031696
vt 0.311336 0.089205
vt 0.181939 0.121965
vt 0.225943 0.173763
vt 0.117524 0.245773
vt 0.187660 0.286638
vt 0.096613 0.382234
vt 0.179633 0.413361
vt 0.088622 0.535051
vt 0.157091 0.555866
vt 0.132870 0.713189
vt 0.173249 0.714090
vt 0.178855 0.872736
vt 0.222799 0.861942
vt 0.296273 0.973986
vt 0.336078 0.955353
vt 0.437064 1.000000
vt 0.467546 0.981913
vt 0.563270 0.946845
vt 0.587791 0.937462
vt 0.686837 0.834171
vt 0.698011 0.848673
vt 0.787362 0.701410
vt 0.787555 0.729302
vt 0.837408 0.539587
vt 0.835694 0.583367
vt 0.837225 0.398861
vt 0.842976 0.445649
vt 0.456718 0.457976
vt 0.493866 0.481389
vn -0.007050 -0.151147 -0.988486
vn -0.034980 -0.270116 -0.962192
vn -0.035081 -0.270748 -0.962011
vn -0.007042 -0.151526 -0.988428
vn -0.058813 -0.716849 -0.694743
vn -0.058689 -0.719775 -0.691722
vn -0.032222 -0.952370 -0.303237
vn -0.031941 -0.953295 -0.300347
vn -0.033106 -0.996252 -0.079913
vn -0.033193 -0.996280 -0.079524
vn -0.072690 -0.983180 0.167549
vn -0.072644 -0.983244 0.167195
vn -0.103165 -0.801796 0.588625
vn -0.103204 -0.799936 0.591144
vn -0.156979 -0.461284 0.873255
vn -0.157170 -0.460569 0.873598
vn -0.266774 -0.132078 0.954666
vn -0.266417 -0.132893 0.954652
vn -0.311389 0.002613 0.950279
vn -0.311455 0.002600 0.950257
vn -0.229990 0.138393 0.963303
vn -0.230509 0.137475 0.963310
vn -0.134816 0.310906 0.940830
vn -0.135623 0.309214 0.941272
vn -0.165077 0.581767 0.796428
vn -0.163630 0.576337 0.800662
vn -0.231708 0.879769 0.415112
vn -0.231587 0.878867 0.417085
vn -0.216696 0.971492 -0.096158
vn -0.216337 0.971246 -0.099399
vn -0.119233 0.823306 -0.554933
vn -0.117913 0.821047 -0.558550
vn -0.048033 0.642980 -0.764375
vn -0.048038 0.643002 -0.764356
vn -0.038793 0.402982 -0.914385
vn -0.038655 0.405476 -0.913288
vn -0.045623 0.121559 -0.991535
vn -0.045660 0.125631 -0.991026
vn -0.025836 -0.104636 -0.994175
vn -0.026313 -0.102430 -0.994392
vn 1.000000 0.000000 0.000000
vn 1.000000 0.000000 0.000000
vn 1.000000 0.000000 0.000000
vn 1.000000 0.000000 0.000000
vn 1.000000 0.000000 0.000000
vn 1.000000 0.000000 0.000000
vn 1.000000 0.000000 0.000000
vn 1.000000 0.000000 0.000000
vn 1.000000 0.000000 0.000000
vn 1.000000 0.000000 0.000000
vn 1.000000 0.000000 0.000000
vn 1.000000 0.000000 0.000000
vn 1.000000 0.000000 0.000000
vn 1.000000 0.000000 0.000000
vn 1.000000 0.000000 0.000000
vn 1.000000 0.000000 0.000000
vn 1.000000 0.000000 0.000000
vn 1.000000 0.000000 0.000000
vn 1.000000 0.000000 0.000000
vn 1.000000 0.000000 0.000000
vn 1.000000 0.000000 0.000000
vn -1.000000 0.000000 0.000000
vn -1.000000 0.000000 0.000000
vn -1.000000 0.000000 0.000000
vn -1.000000 0.000000 0.000000
vn -1.000000 0.000000 0.000000
vn -1.000000 0.000000 0.000000
vn -1.000000 0.000000 0.000000
vn -1.000000 0.000000 0.000000
vn -1.000000 0.000000 0.000000
vn -1.000000 0.000000 0.000000
vn -1.000000 0.000000 0.000000
vn -1.000000 0.000000 0.000000
vn -1.000000 0.000000 0.000000
vn -1.000000 0.000000 0.000000
vn -1.000000 0.000000 0.000000
vn -1.000000 0.000000 0.000000
vn -1.000000 0.000000 0.000000
vn -1.000000 0.000000 0.000000
vn -1.000000 0.000000 0.000000
vn -1.000000 0.000000 0.000000
vn -1.000000 0.000000 0.000000
s 1
g pasted__pasted__pasted__pCylinder3 pasted__pasted__group10 pasted__group11 group13
usemtl lambert9SG
f 1/1/1 2/2/2 22/3/3 21/4/4
f 2/2/2 3/5/5 23/6/6 22/3/3
f 3/5/5 4/7/7 24/8/8 23/6/6
f 4/7/7 5/9/9 25/10/10 24/8/8
f 5/9/9 6/11/11 26/12/12 25/10/10
f 6/11/11 7/13/13 27/14/14 26/12/12
f 7/13/13 8/15/15 28/16/16 27/14/14
f 8/15/15 9/17/17 29/18/18 28/16/16
f 9/17/17 10/19/19 30/20/20 29/18/18
f 10/19/19 11/21/21 31/22/22 30/20/20
f 11/21/21 12/23/23 32/24/24 31/22/22
f 12/23/23 13/25/25 33/26/26 32/24/24
f 13/25/25 14/27/27 34/28/28 33/26/26
f 14/27/27 15/29/29 35/30/30 34/28/28
f 15/29/29 16/31/31 36/32/32 35/30/30
f 16/31/31 17/33/33 37/34/34 36/32/32
f 17/33/33 18/35/35 38/36/36 37/34/34
f 18/35/35 19/37/37 39/38/38 38/36/36
f 19/37/37 20/39/39 40/40/40 39/38/38
f 20/39/39 1/1/1 21/4/4 40/40/40
s 2
f 2/2/41 1/1/42 41/41/43
f 3/5/44 2/2/41 41/41/43
f 4/7/45 3/5/44 41/41/43
f 5/9/46 4/7/45 41/41/43
f 6/11/47 5/9/46 41/41/43
f 7/13/48 6/11/47 41/41/43
f 8/15/49 7/13/48 41/41/43
f 9/17/50 8/15/49 41/41/43
f 10/19/51 9/17/50 41/41/43
f 11/21/52 10/19/51 41/41/43
f 12/23/53 11/21/52 41/41/43
f 13/25/54 12/23/53 41/41/43
f 14/27/55 13/25/54 41/41/43
f 15/29/56 14/27/55 41/41/43
f 16/31/57 15/29/56 41/41/43
f 17/33/58 16/31/57 41/41/43
f 18/35/59 17/33/58 41/41/43
f 19/37/60 18/35/59 41/41/43
f 20/39/61 19/37/60 41/41/43
f 1/1/42 20/39/61 41/41/43
s 3
f 21/4/62 22/3/63 42/42/64
f 22/3/63 23/6/65 42/42/64
f 23/6/65 24/8/66 42/42/64
f 24/8/66 25/10/67 42/42/64
f 25/10/67 26/12/68 42/42/64
f 26/12/68 27/14/69 42/42/64
f 27/14/69 28/16/70 42/42/64
f 28/16/70 29/18/71 42/42/64
f 29/18/71 30/20/72 42/42/64
f 30/20/72 31/22/73 42/42/64
f 31/22/73 32/24/74 42/42/64
f 32/24/74 33/26/75 42/42/64
f 33/26/75 34/28/76 42/42/64
f 34/28/76 35/30/77 42/42/64
f 35/30/77 36/32/78 42/42/64
f 36/32/78 37/34/79 42/42/64
f 37/34/79 38/36/80 42/42/64
f 38/36/80 39/38/81 42/42/64
f 39/38/81 40/40/82 42/42/64
f 40/40/82 21/4/62 42/42/64
