# This file uses centimeters as units for non-parametric coordinates.

mtllib lavatrastesPuertaD.mtl
g default
v 9.252863 -0.178174 -12.551916
v 10.481038 -0.178174 -9.586840
v 6.287787 -0.178174 -13.780091
v 6.287787 0.148531 -13.780091
v 10.481038 0.148531 -9.586840
v 9.252863 0.148531 -12.551916
v 9.975395 -0.178174 -5.183005
v 8.593948 -0.178174 -3.801557
v 6.706860 -0.178174 -3.295917
v 10.481038 -0.178174 -7.070093
v 6.706860 0.148531 -3.295917
v 8.593948 0.148531 -3.801557
v 9.975395 0.148531 -5.183005
v 10.481038 0.148531 -7.070093
v 0.193374 -0.178174 -3.492425
v -0.003138 -0.178174 -3.966847
v 0.667795 -0.178174 -3.295917
v 0.667795 0.148531 -3.295917
v -0.003138 0.148531 -3.966847
v 0.193374 0.148531 -3.492425
v -0.003138 -0.178174 -10.634943
v 0.418232 -0.178174 -12.207516
v 1.569436 -0.178174 -13.358721
v 3.142009 -0.178174 -13.780091
v -0.003138 0.148531 -10.634943
v 3.142009 0.148531 -13.780091
v 1.569436 0.148531 -13.358721
v 0.418232 0.148531 -12.207518
vt 0.875000 0.150010
vt 0.625000 0.250000
vt 0.875000 0.250000
vt 0.525010 0.500000
vt 0.464997 0.500000
vt 0.417903 0.284337
vt 0.375000 0.250000
vt 0.125000 0.250000
vt 0.125000 0.160003
vt 0.390999 1.000000
vt 0.125000 0.015999
vt 0.375000 0.000000
vt 0.375000 1.000000
vt 0.125000 0.000000
vt 0.875000 0.074997
vt 0.625000 0.150010
vt 0.550002 1.000000
vt 0.625000 0.074998
vt 0.550003 0.750000
vt 0.525010 0.250000
vt 0.464997 0.250000
vt 0.375000 0.160003
vt 0.375000 0.015999
vt 0.399960 1.000000
vt 0.117146 0.882854
vt 0.390999 0.750000
vt 0.375000 0.750000
vt 0.000000 0.700010
vt 0.000000 0.063995
vt 0.375000 0.500000
vt 0.419508 0.449469
vt 0.625000 0.500000
vt 0.018744 0.018744
vt 0.063995 0.000000
vt 0.000000 0.600040
vt 0.576057 0.913148
vt 0.758087 0.035073
vt 0.602112 0.826297
vt 0.625000 0.750000
vt 0.875000 0.000000
vt 0.587501 0.750000
vt 0.640012 0.000000
vt 0.820006 0.048229
vt 0.951771 0.179994
vt 1.000000 0.359988
vt 1.000000 0.600040
vt 0.882854 0.882854
vt 0.600040 1.000000
vt 0.299990 1.000000
vt 0.149995 0.959809
vt 0.040191 0.850005
vt 0.000000 0.359988
vt 0.048229 0.179994
vt 0.179994 0.048229
vt 0.359988 0.000000
vt 0.936005 0.000000
vt 0.981256 0.018744
vt 1.000000 0.063995
vt 1.000000 0.700010
vt 0.959809 0.850005
vt 0.850005 0.959809
vt 0.700010 1.000000
vn 0.993473 0.000000 0.114069
vn 0.993473 0.000000 0.114069
vn 0.975809 0.000000 -0.218625
vn 0.975809 0.000000 -0.218625
vn -0.999622 0.000000 0.027503
vn -0.999622 0.000000 0.027503
vn -0.998695 0.000000 -0.051066
vn -0.998695 0.000000 -0.051066
vn -0.088951 -0.000000 -0.996036
vn -0.088951 -0.000000 -0.996036
vn 0.197042 0.000000 -0.980395
vn 0.197042 0.000000 -0.980395
vn -0.030156 0.000000 0.999545
vn -0.030156 0.000000 0.999545
vn 0.063664 0.000000 0.997971
vn 0.063664 0.000000 0.997971
vn 0.923879 0.000000 -0.382684
vn 0.923879 0.000000 -0.382684
vn 0.382684 0.000000 -0.923879
vn 0.382684 0.000000 -0.923879
vn 0.258817 0.000000 0.965926
vn 0.258817 0.000000 0.965926
vn 0.707107 0.000000 0.707106
vn 0.707107 0.000000 0.707106
vn 0.707107 0.000000 0.707106
vn 0.707107 0.000000 0.707106
vn 0.965926 0.000000 0.258819
vn 0.965926 0.000000 0.258819
vn -0.923880 0.000000 0.382683
vn -0.923880 0.000000 0.382683
vn -0.382679 0.000000 0.923882
vn -0.382679 0.000000 0.923882
vn -0.500000 -0.000001 -0.866025
vn -0.500000 -0.000001 -0.866025
vn -0.707107 -0.000002 -0.707107
vn -0.707107 -0.000002 -0.707107
vn -0.965926 0.000001 -0.258819
vn -0.965926 0.000001 -0.258819
vn 0.000000 -1.000000 0.000000
vn 0.000000 -1.000000 0.000000
vn 0.000000 -1.000000 0.000000
vn 0.000000 -1.000000 0.000000
vn 0.000000 -1.000000 0.000000
vn 0.000000 -1.000000 0.000000
vn 0.000000 -1.000000 0.000000
vn 0.000000 -1.000000 0.000000
vn 0.000000 -1.000000 0.000000
vn 0.000000 -1.000000 0.000000
vn 0.000000 -1.000000 0.000000
vn 0.000000 -1.000000 0.000000
vn 0.000000 -1.000000 0.000000
vn 0.000000 -1.000000 0.000000
vn 0.000000 1.000000 -0.000000
vn 0.000000 1.000000 -0.000000
vn 0.000000 1.000000 -0.000000
vn 0.000000 1.000000 -0.000000
vn 0.000000 1.000000 -0.000000
vn 0.000000 1.000000 -0.000000
vn 0.000000 1.000000 -0.000000
vn 0.000000 1.000000 -0.000000
vn 0.000000 1.000000 -0.000000
vn 0.000000 1.000000 -0.000000
vn 0.000000 1.000000 -0.000000
vn 0.000000 1.000000 -0.000000
vn 0.000000 1.000000 -0.000000
vn 0.000000 1.000000 -0.000000
s 1
g pasted__pCube10 group6
usemtl lambert2SG
f 14/5/1 10/21/2 2/20/3 5/4/4
s 2
f 16/10/5 19/26/6 25/19/7 21/17/8
s 3
f 24/18/9 26/15/10 4/1/11 3/16/12
s 4
f 18/11/13 17/23/14 9/22/15 11/9/16
s 1
f 2/20/3 1/2/17 6/32/18 5/4/4
s 3
f 1/2/19 3/16/12 4/1/11 6/3/20
s 4
f 9/22/15 8/7/21 12/8/22 11/9/16
s off
f 8/7/23 7/6/24 13/31/25 12/30/26
s 1
f 7/6/27 10/21/2 14/5/1 13/31/28
s 2
f 16/10/5 15/13/29 20/27/30 19/26/6
s 4
f 15/12/31 17/23/14 18/11/13 20/14/32
s 3
f 24/18/9 23/37/33 27/40/34 26/15/10
f 23/38/33 22/36/35 28/41/36 27/39/34
s 2
f 22/36/37 21/17/8 25/19/7 28/41/38
s off
f 3/24/39 1/25/40 2/35/41 10/52/42 7/53/43 8/54/44 9/55/45 17/56/46 15/57/47 16/58/48 21/59/49 22/60/50 23/61/51 24/62/52
f 25/28/53 19/29/54 20/33/55 18/34/56 11/42/57 12/43/58 13/44/59 14/45/60 5/46/61 6/47/62 4/48/63 26/49/64 27/50/65 28/51/66
